<?xml version="1.0" encoding="utf-8"?>
<!-- Generator: Adobe Illustrator 22.0.0, SVG Export Plug-In . SVG Version: 6.00 Build 0)  -->
<svg version="1.1" id="Camada_1" xmlns="http://www.w3.org/2000/svg" xmlns:xlink="http://www.w3.org/1999/xlink" x="0px" y="0px"
	 viewBox="0 0 155 89.8" style="enable-background:new 0 0 155 89.8;" xml:space="preserve">
<style type="text/css">
	.st0{fill-rule:evenodd;clip-rule:evenodd;fill:#DA802D;}
	.st1{fill-rule:evenodd;clip-rule:evenodd;fill:#FFFFFF;}
</style>
<path class="st0" d="M75.7,19.9L26.5,55.9c-1.1,0.7-0.7,1.4,0.1,1.4c34.1,0,68.2,0,102.2,0c0.9,0,1.2-0.6,0.1-1.4L79.7,19.9
	C78.4,19,77,19,75.7,19.9z"/>
<path class="st1" d="M75.8,2.2L20.3,56.8l55-40.4c0.8-0.6,1.7-0.9,2.5-0.9c0.8,0,1.6,0.3,2.5,0.9l55,40.4L79.7,2.2
	c-0.6-0.6-1.3-0.9-1.9-0.9C77.1,1.3,76.4,1.6,75.8,2.2z"/>
<path class="st1" d="M1.5,80h5.3v0.7c0,1.3,0.2,2.2,0.5,2.7C7.7,84,8.2,84.2,9,84.2c0.6,0,1.1-0.2,1.5-0.6c0.4-0.4,0.5-0.9,0.5-1.6
	c0-1.1-0.9-2.2-2.6-3.3c-0.3-0.2-0.5-0.3-0.6-0.4c-0.1,0-0.1-0.1-0.3-0.2c-2.3-1.5-3.8-2.6-4.4-3.3c-0.4-0.6-0.7-1.2-0.9-1.9
	c-0.2-0.7-0.3-1.5-0.3-2.3c0-2,0.6-3.6,1.9-4.8c1.3-1.2,3-1.7,5.2-1.7c2.4,0,4.2,0.6,5.5,1.7c1.3,1.1,1.9,2.8,1.9,4.9
	c0,0.1,0,0.2,0,0.4c0,0.2,0,0.3,0,0.4h-5.2v-0.3c0-1-0.2-1.8-0.5-2.3c-0.3-0.5-0.8-0.8-1.5-0.8c-0.5,0-1,0.2-1.3,0.6
	c-0.3,0.4-0.5,0.9-0.5,1.5c0,1,1,2,2.9,3.1c0.3,0.2,0.6,0.4,0.8,0.5c0.2,0.1,0.4,0.2,0.6,0.4c2,1.2,3.3,2.2,3.9,3.1
	c0.4,0.5,0.6,1.1,0.8,1.8c0.2,0.7,0.3,1.4,0.3,2.2c0,2.3-0.6,4.1-1.9,5.4c-1.3,1.3-3.2,1.9-5.6,1.9c-2.5,0-4.4-0.6-5.7-1.8
	c-1.3-1.2-1.9-3-1.9-5.4c0-0.1,0-0.3,0-0.5C1.5,80.7,1.5,80.4,1.5,80L1.5,80z M19.3,87.9L19.3,87.9V64.6h13.6v4.5h-7.8v4.3h7.2v4.7
	h-7.2v5.1h7.8v4.7H19.3L19.3,87.9z M51.4,75.2L51.4,75.2v12.8h-4l-0.3-1.5c-0.6,0.6-1.2,1.1-1.9,1.4c-0.7,0.3-1.5,0.5-2.4,0.5
	c-1,0-2-0.2-2.8-0.5c-0.9-0.4-1.6-0.9-2.2-1.5c-0.8-0.8-1.3-1.9-1.7-3.3c-0.3-1.4-0.5-3.7-0.5-7c0-2.4,0.1-4.2,0.3-5.6
	c0.2-1.4,0.6-2.5,1.1-3.2c0.7-1,1.6-1.8,2.7-2.3c1.1-0.5,2.5-0.8,4.1-0.8c2.5,0,4.3,0.6,5.5,1.9c1.2,1.2,1.9,3.1,1.9,5.6
	c0,0.1,0,0.2,0,0.4c0,0.2,0,0.3,0,0.4h-5.5v-0.3c0-1.3-0.2-2.3-0.5-2.9c-0.3-0.6-0.8-0.9-1.5-0.9c-0.8,0-1.4,0.4-1.7,1.1
	c-0.3,0.7-0.5,2.4-0.5,4.9v2.3v1.6c0,2.6,0.1,4.2,0.4,4.9c0.3,0.7,0.8,1,1.6,1c0.8,0,1.4-0.3,1.7-0.9c0.4-0.6,0.5-1.6,0.5-2.9
	c0-0.3,0-0.5,0-0.7c0-0.2,0-0.3,0-0.5h-2.3v-4.1H51.4L51.4,75.2z M54.8,64.6L54.8,64.6h5.9v14.6c0,2.2,0.1,3.6,0.4,4.1
	c0.3,0.5,0.8,0.8,1.6,0.8c0.8,0,1.3-0.3,1.6-0.8c0.3-0.5,0.4-1.9,0.4-4.1V64.6h5.8v14.9c0,1.7-0.1,2.9-0.2,3.8
	c-0.2,0.8-0.4,1.6-0.8,2.2c-0.6,1-1.4,1.8-2.6,2.3c-1.1,0.5-2.6,0.7-4.4,0.7c-1.7,0-3-0.2-4.1-0.7c-1-0.5-1.9-1.2-2.5-2.2
	c-0.4-0.7-0.8-1.6-0.9-2.8c-0.2-1.1-0.3-3-0.3-5.7V64.6L54.8,64.6z M80,74.3L80,74.3c0.1,0,0.2,0,0.4,0c0.2,0,0.3,0,0.3,0
	c1.2,0,2.1-0.2,2.6-0.7c0.5-0.5,0.8-1.2,0.8-2.3c0-1-0.2-1.7-0.8-2.1c-0.5-0.4-1.4-0.6-2.6-0.6c-0.1,0-0.2,0-0.3,0
	c-0.2,0-0.3,0-0.4,0V74.3L80,74.3z M74.2,87.9L74.2,87.9V64.6h6.6c2.1,0,3.7,0.1,4.7,0.3c1,0.2,1.8,0.5,2.4,1c0.7,0.5,1.2,1.2,1.6,2
	c0.3,0.8,0.5,1.7,0.5,2.8c0,1.3-0.2,2.5-0.8,3.4c-0.5,0.9-1.3,1.7-2.3,2.2c1.8,0.7,2.7,2.5,2.8,5.3c0,0,0,0.1,0,0.1
	c0,0.3,0,0.7,0,1.3c0,2.6,0.5,4.3,1.4,4.9h-6.8c-0.2-0.5-0.3-1-0.3-1.5c-0.1-0.5-0.1-1.1-0.1-1.7c0-0.4,0-0.8,0-1.4c0-0.5,0-0.9,0-1
	c0-1.4-0.2-2.4-0.6-2.9c-0.4-0.5-1.1-0.8-2.2-0.8H80v9.3H74.2L74.2,87.9z M98.7,79.3L98.7,79.3h3.4l-1.7-10.2L98.7,79.3L98.7,79.3z
	 M91.5,87.9L91.5,87.9l5.4-23.3h6.9l5.4,23.3h-5.8l-0.7-4.5h-4.6l-0.7,4.5H91.5L91.5,87.9z M123.9,87.9L123.9,87.9h-12.8V64.6h5.8
	v18.6h7V87.9L123.9,87.9z M126.5,87.9h5.8V69.2h4.9v-4.5h-15.4v4.5h4.7V87.9L126.5,87.9L126.5,87.9z M143.5,79.3L143.5,79.3h3.3
	l-1.7-10.2L143.5,79.3L143.5,79.3z M136.3,87.9L136.3,87.9l5.4-23.3h6.9l5.4,23.3h-5.8l-0.7-4.5h-4.6l-0.7,4.5H136.3z"/>
</svg>
