<?xml version="1.0" encoding="utf-8"?>
<!-- Generator: Adobe Illustrator 22.0.0, SVG Export Plug-In . SVG Version: 6.00 Build 0)  -->
<svg version="1.1" id="Layer_1" xmlns="http://www.w3.org/2000/svg" xmlns:xlink="http://www.w3.org/1999/xlink" x="0px" y="0px"
	 viewBox="0 0 327.9 186.5" style="enable-background:new 0 0 327.9 186.5;" xml:space="preserve">
<style type="text/css">
	.st0{fill-rule:evenodd;clip-rule:evenodd;fill:#DA802D;}
	.st1{fill-rule:evenodd;clip-rule:evenodd;fill:#262424;}
</style>
<title>logo-black</title>
<path class="st0" d="M159.7,40.5L55,117.2c-2.4,1.6-1.6,3,0.2,2.9c72.5,0,144.9,0,217.4,0c1.8,0.1,2.6-1.3,0.2-2.9L168.2,40.5
	C165.5,38.6,162.4,38.6,159.7,40.5z"/>
<path class="st1" d="M159.9,2.8L41.8,119.1l116.9-86c1.8-1.2,3.5-1.8,5.3-1.8c1.7,0,3.5,0.6,5.3,1.8l116.9,86L168,2.8
	c-1.4-1.2-2.7-1.9-4.1-1.8C162.6,1,161.2,1.6,159.9,2.8z"/>
<path class="st1" d="M1.9,168.5h11.4v1.5c0,2.7,0.3,4.6,1,5.8c0.7,1.1,1.8,1.7,3.5,1.7c1.3,0,2.3-0.4,3.1-1.3c0.8-0.8,1.1-2,1.1-3.5
	c0-2.4-1.8-4.7-5.5-6.9c-0.6-0.4-1.1-0.7-1.4-0.9c-0.1-0.1-0.3-0.2-0.6-0.4c-5-3.1-8.1-5.5-9.3-7.1c-0.9-1.2-1.5-2.6-2-4.1
	c-0.5-1.5-0.7-3.2-0.7-4.9c0-4.3,1.3-7.7,4-10.2c2.7-2.5,6.4-3.7,11.1-3.7c5.1,0,9,1.2,11.7,3.6c2.7,2.4,4,5.9,4,10.5
	c0,0.2,0,0.5,0,0.8c0,0.3,0,0.6,0,0.8H22.2v-0.6c0-2.2-0.4-3.8-1.1-4.9c-0.7-1.1-1.8-1.7-3.2-1.7c-1.2,0-2.1,0.4-2.8,1.2
	c-0.7,0.8-1.1,1.8-1.1,3.1c0,2.1,2,4.3,6.1,6.7c0.7,0.4,1.3,0.8,1.7,1c0.3,0.2,0.8,0.4,1.4,0.8c4.3,2.6,7.1,4.7,8.3,6.5
	c0.8,1.1,1.3,2.4,1.7,3.9c0.4,1.4,0.6,3,0.6,4.7c0,5-1.4,8.8-4.1,11.5c-2.8,2.7-6.7,4-11.8,4c-5.4,0-9.4-1.3-12.1-3.8
	c-2.7-2.6-4-6.4-4-11.4c0-0.3,0-0.7,0-1C1.8,169.8,1.8,169.2,1.9,168.5L1.9,168.5z M39.7,185.3L39.7,185.3v-49.6h28.9v9.6H52v9.1
	h15.3v9.9H52v10.8h16.5v10.1H39.7L39.7,185.3z M108,158.1L108,158.1v27.2h-8.5l-0.6-3.1c-1.2,1.3-2.6,2.3-4.1,3
	c-1.5,0.6-3.2,1-5.1,1c-2.2,0-4.1-0.4-6-1.1c-1.8-0.7-3.4-1.8-4.8-3.2c-1.7-1.7-2.9-4.1-3.5-7c-0.7-2.9-1-7.9-1-14.9
	c0-5,0.2-9,0.7-12c0.5-3,1.2-5.3,2.2-6.8c1.5-2.2,3.4-3.8,5.8-4.9c2.4-1.1,5.3-1.6,8.6-1.6c5.2,0,9.1,1.3,11.8,4
	c2.6,2.6,4,6.6,4,11.9c0,0.2,0,0.5,0,0.9c0,0.4,0,0.7,0,0.9H95.7v-0.6c0-2.8-0.3-4.9-1-6.1c-0.7-1.2-1.7-1.8-3.2-1.8
	c-1.8,0-3,0.7-3.6,2.3c-0.6,1.5-1,5-1,10.5v4.9v3.4c0,5.5,0.3,9,0.9,10.4c0.6,1.4,1.8,2.2,3.4,2.2c1.7,0,2.9-0.6,3.6-1.9
	c0.8-1.3,1.1-3.3,1.1-6.1c0-0.6,0-1.1,0-1.5c0-0.3,0-0.7,0-1h-4.9v-8.7H108L108,158.1z M115.2,135.7L115.2,135.7h12.5v31
	c0,4.7,0.3,7.6,1,8.7c0.6,1.1,1.8,1.7,3.4,1.7c1.6,0,2.8-0.6,3.4-1.7c0.6-1.2,0.9-4,0.9-8.7v-31h12.3v31.6c0,3.6-0.2,6.2-0.5,8
	c-0.3,1.8-0.9,3.3-1.6,4.6c-1.3,2.2-3.1,3.9-5.5,4.9c-2.4,1-5.5,1.6-9.3,1.6c-3.5,0-6.4-0.5-8.6-1.5c-2.2-1-4-2.5-5.3-4.7
	c-0.9-1.5-1.6-3.5-2-5.9c-0.4-2.4-0.6-6.4-0.6-12.1V135.7L115.2,135.7z M168.7,156.3L168.7,156.3c0.2,0,0.5,0,0.8,0
	c0.3,0,0.6,0,0.7,0c2.6,0,4.4-0.5,5.5-1.5c1.1-1,1.6-2.6,1.6-4.9c0-2.1-0.5-3.6-1.6-4.5c-1.1-0.9-2.9-1.3-5.5-1.3
	c-0.2,0-0.4,0-0.7,0c-0.3,0-0.6,0-0.8,0V156.3L168.7,156.3z M156.5,185.3L156.5,185.3v-49.6h14c4.6,0,7.9,0.2,9.9,0.6
	c2.1,0.4,3.7,1.1,5,2c1.5,1.2,2.6,2.6,3.4,4.3c0.7,1.7,1.1,3.7,1.1,6.1c0,2.8-0.5,5.2-1.6,7.2c-1.1,1.9-2.7,3.5-5,4.8
	c3.8,1.6,5.8,5.3,6.1,11.3c0,0.1,0,0.1,0,0.2c0,0.6,0,1.5,0.1,2.7c0.1,5.6,1.1,9.1,3,10.5h-14.5c-0.3-1-0.6-2.1-0.7-3.2
	c-0.1-1.1-0.2-2.3-0.2-3.6c0-0.8,0-1.8,0.1-2.9c0-1.1,0.1-1.9,0.1-2.2c0-3-0.4-5.1-1.3-6.2c-0.9-1.1-2.4-1.7-4.6-1.7h-2.6v19.8
	H156.5L156.5,185.3z M208.5,166.8L208.5,166.8h7.1l-3.6-21.6L208.5,166.8L208.5,166.8z M193.2,185.3L193.2,185.3l11.6-49.6h14.7
	l11.4,49.6h-12.4l-1.6-9.5h-9.7l-1.5,9.5H193.2L193.2,185.3z M262.2,185.3L262.2,185.3h-27.3v-49.6h12.4v39.5h14.9V185.3
	L262.2,185.3z M267.6,185.3h12.4v-39.9h10.4v-9.6h-32.8v9.6h9.9V185.3L267.6,185.3L267.6,185.3z M303.7,166.8L303.7,166.8h7.1
	l-3.5-21.6L303.7,166.8L303.7,166.8z M288.4,185.3L288.4,185.3l11.6-49.6h14.7l11.4,49.6h-12.4l-1.6-9.5h-9.7l-1.5,9.5H288.4z"/>
</svg>
