<?xml version="1.0" encoding="utf-8"?>
<!-- Generator: Adobe Illustrator 22.0.0, SVG Export Plug-In . SVG Version: 6.00 Build 0)  -->
<svg version="1.1" id="Layer_1" xmlns="http://www.w3.org/2000/svg" xmlns:xlink="http://www.w3.org/1999/xlink" x="0px" y="0px"
	 viewBox="0 0 212 104.6" style="enable-background:new 0 0 212 104.6;" xml:space="preserve">
<style type="text/css">
	.st0{fill-rule:evenodd;clip-rule:evenodd;fill:#DA802D;}
	.st1{fill-rule:evenodd;clip-rule:evenodd;fill:#262424;}
</style>
<title>Artboard 1</title>
<g>
	<path class="st0" d="M102.5,35l-91.5,67c-2.1,1.4-1.4,2.6,0.2,2.5c63.4,0,126.7,0,190.1,0c1.6,0.1,2.3-1.2,0.2-2.5L110,35
		C107.6,33.4,105,33.4,102.5,35z"/>
	<path class="st1" d="M102.7,2.1L-0.5,103.7l102.2-75.2c1.5-1,3.1-1.6,4.6-1.6c1.5,0,3.1,0.6,4.6,1.6l102.2,75.2L109.9,2.1
		c-1.2-1.1-2.4-1.6-3.6-1.6C105.1,0.5,103.9,1,102.7,2.1z"/>
</g>
</svg>
