<?xml version="1.0" encoding="utf-8"?>
<!-- Generator: Adobe Illustrator 22.0.0, SVG Export Plug-In . SVG Version: 6.00 Build 0)  -->
<svg version="1.1" id="Layer_1" xmlns="http://www.w3.org/2000/svg" xmlns:xlink="http://www.w3.org/1999/xlink" x="0px" y="0px"
	 viewBox="0 0 327.9 190.4" style="enable-background:new 0 0 327.9 190.4;" xml:space="preserve">
<style type="text/css">
	.st0{fill:#FFFFFF;}
</style>
<title>logo-white</title>
<path class="st0" d="M160,45.5L57.8,120.4c-2.3,1.5-1.5,2.9,0.2,2.8c70.8,0,141.5,0,212.3,0c1.8,0.1,2.5-1.3,0.2-2.8L168.4,45.5
	C165.7,43.7,162.7,43.7,160,45.5z"/>
<path class="st0" d="M160.2,8.8L44.9,122.3l114.2-84c1.7-1.2,3.4-1.8,5.1-1.8c1.7,0,3.4,0.6,5.1,1.8l114.2,84L168.2,8.8
	c-1.3-1.2-2.7-1.8-4-1.8C162.9,6.9,161.5,7.5,160.2,8.8z"/>
<path class="st0" d="M5.9,170.5H17v1.4c0,2.7,0.3,4.5,1,5.6s1.8,1.6,3.4,1.6c1.3,0,2.3-0.4,3-1.2s1.1-2,1.1-3.4
	c0-2.3-1.8-4.6-5.4-6.8c-0.6-0.4-1-0.7-1.3-0.8c-0.1-0.1-0.3-0.2-0.6-0.3c-4.9-3.1-7.9-5.4-9.1-6.9c-0.9-1.2-1.5-2.5-1.9-4
	s-0.7-3.1-0.7-4.8c0-4.2,1.3-7.6,3.9-10s6.2-3.6,10.8-3.6c5,0,8.8,1.2,11.5,3.5c2.6,2.4,3.9,5.8,3.9,10.3c0,0.2,0,0.5,0,0.8
	s0,0.6,0,0.8H25.8v-0.6c0-2.1-0.4-3.7-1.1-4.8s-1.7-1.6-3.1-1.6c-1.1,0-2.1,0.4-2.8,1.1c-0.7,0.8-1,1.8-1,3c0,2,2,4.2,5.9,6.5
	c0.7,0.4,1.3,0.8,1.6,1c0.3,0.2,0.8,0.4,1.3,0.8c4.2,2.5,6.9,4.6,8.1,6.4c0.7,1.1,1.3,2.4,1.7,3.8c0.4,1.4,0.6,2.9,0.6,4.6
	c0,4.8-1.3,8.6-4,11.2c-2.7,2.6-6.5,3.9-11.5,3.9c-5.2,0-9.2-1.3-11.8-3.8S5.8,178,5.8,173c0-0.3,0-0.6,0-1
	C5.8,171.8,5.9,171.3,5.9,170.5L5.9,170.5z M42.8,186.9L42.8,186.9v-48.4H71v9.4H54.9v8.9h14.9v9.7H54.9v10.6H71v9.8H42.8
	L42.8,186.9z M109.5,160.4L109.5,160.4v26.5h-8.3l-0.5-3c-1.2,1.3-2.5,2.3-4,2.9c-1.5,0.6-3.1,1-5,1c-2.1,0-4.1-0.4-5.8-1.1
	c-1.8-0.7-3.3-1.8-4.6-3.2c-1.6-1.7-2.8-4-3.5-6.9s-1-7.7-1-14.6c0-4.9,0.2-8.8,0.7-11.7s1.2-5.1,2.2-6.6c1.4-2.1,3.3-3.7,5.7-4.8
	c2.4-1.1,5.2-1.6,8.4-1.6c5.1,0,8.9,1.3,11.5,3.9c2.6,2.6,3.9,6.4,3.9,11.6c0,0.2,0,0.5,0,0.9s0,0.7,0,0.9H97.5V154
	c0-2.8-0.3-4.8-1-6c-0.6-1.2-1.7-1.8-3.1-1.8c-1.7,0-2.9,0.7-3.5,2.2s-1,4.9-1,10.3v4.8v3.3c0,5.4,0.3,8.8,0.9,10.2s1.7,2.1,3.4,2.1
	c1.6,0,2.8-0.6,3.6-1.9c0.7-1.2,1.1-3.2,1.1-6c0-0.6,0-1.1,0-1.4c0-0.3,0-0.7,0-1h-4.7v-8.5L109.5,160.4L109.5,160.4z M116.6,138.5
	L116.6,138.5h12.2v30.3c0,4.6,0.3,7.4,0.9,8.5c0.6,1.1,1.7,1.6,3.3,1.6s2.7-0.6,3.3-1.7c0.6-1.1,0.9-3.9,0.9-8.5v-30.3h12v30.9
	c0,3.5-0.2,6.1-0.5,7.8s-0.9,3.2-1.6,4.5c-1.2,2.2-3,3.8-5.3,4.8s-5.4,1.5-9.1,1.5c-3.4,0-6.3-0.5-8.4-1.4c-2.2-1-3.9-2.5-5.2-4.6
	c-0.9-1.5-1.6-3.4-1.9-5.7c-0.4-2.3-0.6-6.3-0.6-11.8L116.6,138.5L116.6,138.5z M168.9,158.7L168.9,158.7c0.2,0,0.5,0,0.8,0
	s0.6,0,0.7,0c2.5,0,4.3-0.5,5.3-1.4s1.6-2.5,1.6-4.8c0-2.1-0.5-3.6-1.6-4.4c-1-0.9-2.8-1.3-5.3-1.3c-0.2,0-0.4,0-0.7,0s-0.6,0-0.8,0
	V158.7L168.9,158.7z M156.9,186.9L156.9,186.9v-48.4h13.6c4.5,0,7.7,0.2,9.7,0.6c2,0.4,3.7,1.1,4.9,2c1.5,1.1,2.6,2.5,3.3,4.2
	s1.1,3.6,1.1,5.9c0,2.8-0.5,5.1-1.6,7c-1,1.9-2.7,3.4-4.9,4.7c3.7,1.5,5.7,5.2,5.9,11c0,0.1,0,0.1,0,0.2c0,0.6,0,1.5,0.1,2.6
	c0.1,5.4,1.1,8.9,2.9,10.2h-14.2c-0.3-1-0.6-2.1-0.7-3.2c-0.1-1.1-0.2-2.3-0.2-3.5c0-0.8,0-1.7,0.1-2.8c0-1.1,0.1-1.8,0.1-2.2
	c0-3-0.4-5-1.2-6.1s-2.3-1.6-4.5-1.6h-2.5v19.4L156.9,186.9L156.9,186.9z M207.7,168.9L207.7,168.9h7l-3.5-21.1L207.7,168.9
	L207.7,168.9z M192.7,186.9L192.7,186.9l11.3-48.4h14.4l11.2,48.4h-12.1l-1.5-9.3h-9.5l-1.5,9.3H192.7L192.7,186.9z M260.2,186.9
	L260.2,186.9h-26.7v-48.4h12.1v38.6h14.6V186.9L260.2,186.9z M265.4,186.9h12.1v-39h10.2v-9.4h-32v9.4h9.7L265.4,186.9L265.4,186.9
	L265.4,186.9z M300.7,168.9L300.7,168.9h7l-3.5-21.1L300.7,168.9L300.7,168.9z M285.7,186.9L285.7,186.9l11.3-48.4h14.4l11.2,48.4
	h-12.1l-1.5-9.3h-9.5l-1.5,9.3H285.7z"/>
</svg>
